<?xml version="1.0" encoding="UTF-8" standalone="no"?>
<!-- Generator: Adobe Illustrator 17.0.1, SVG Export Plug-In . SVG Version: 6.00 Build 0)  -->

<svg
   xmlns:dc="http://purl.org/dc/elements/1.1/"
   xmlns:cc="http://creativecommons.org/ns#"
   xmlns:rdf="http://www.w3.org/1999/02/22-rdf-syntax-ns#"
   xmlns:svg="http://www.w3.org/2000/svg"
   xmlns="http://www.w3.org/2000/svg"
   version="1.1"
   viewBox="0 0 22 20">
            <g>
                   <rect style="fill-rule:evenodd;clip-rule:evenodd;fill:#FDCC00;" width="20" height="20"></rect>
            </g>
            <path style="fill:#194486;" d="M8.5,9.5C8.5,8.671,9.172,8,10,8c0.829,0,1.5,0.671,1.5,1.5S10.829,11,10,11C9.172,11,8.5,10.329,8.5,9.5                 L8.5,9.5z"></path>
            <g>
                <path style="fill:none;" d="M7.233,13.984L6.264,14.5H6.5l0.5,1h0.564c-0.125-0.052-0.256-0.09-0.378-0.148L7.233,13.984z"></path>
                <circle style="fill:none;" cx="9.999" cy="9.5" r="4"></circle>
                <path style="fill:none;" d="M12.828,15.345c-0.126,0.061-0.263,0.101-0.392,0.155H13l0.5-1h0.267l-0.986-0.526L12.828,15.345z"></path>
                <path style="fill:#194486;" d="M16,14.5l-0.5,1h-1l-0.461-0.923c0.252-0.201,0.491-0.417,0.711-0.653l-0.535-1.264l1.36,0.167                     c0.177-0.295,0.332-0.603,0.461-0.925l-0.963-0.965l1.332-0.358c0.056-0.332,0.091-0.672,0.095-1.019l-1.25-0.584l1.124-0.789                     c-0.068-0.34-0.169-0.667-0.288-0.985l-1.375-0.096l0.763-1.133c-0.186-0.292-0.396-0.566-0.625-0.823l-1.302,0.424l0.286-1.348                     c-0.275-0.202-0.566-0.384-0.871-0.541l-1.068,0.866l-0.215-1.359c-0.325-0.087-0.657-0.156-1-0.192l-0.004,0.007l-0.658,1.189                     L9.991,4.15L9.963,4.196L9.308,3.012L9.303,3.002c-0.343,0.037-0.675,0.105-1,0.193L8.088,4.558L7.021,3.692                     C6.714,3.851,6.423,4.035,6.147,4.239l0.307,1.332l-1.32-0.404C4.907,5.424,4.7,5.697,4.515,5.988l0.764,1.135L3.906,7.218                     C3.788,7.537,3.689,7.865,3.622,8.205l1.125,0.79L3.5,9.577c0.005,0.351,0.04,0.694,0.099,1.03l1.321,0.306l-0.946,1.017                     c0.129,0.318,0.285,0.622,0.46,0.913l1.362-0.168l-0.535,1.263c0.217,0.231,0.453,0.442,0.701,0.64L5.5,15.5h-1l-0.5-1H3                     c0,0,0,2.5,2,2.5h9.998C16.915,17,17,14.5,17,14.5H16z M9.999,5.5c2.209,0,4,1.791,4,4c0,2.209-1.791,4-4,4c-2.209,0-4-1.791-4-4                     C5.999,7.291,7.79,5.5,9.999,5.5z M7,15.5l-0.5-1H6.264l0.969-0.516l-0.047,1.368c0.121,0.058,0.253,0.096,0.378,0.148H7z                      M13.5,14.5l-0.5,1h-0.564c0.13-0.054,0.266-0.094,0.392-0.155l-0.048-1.37l0.986,0.526H13.5z"></path>
            </g>
</svg>
