<?xml version="1.0" encoding="UTF-8" standalone="no"?>
<svg
        xmlns:dc="http://purl.org/dc/elements/1.1/"
        xmlns:cc="http://creativecommons.org/ns#"
        xmlns:rdf="http://www.w3.org/1999/02/22-rdf-syntax-ns#"
        xmlns:svg="http://www.w3.org/2000/svg"
        xmlns="http://www.w3.org/2000/svg"
        version="1.1"
        viewBox="0 0 22 20">

            <rect style="fill:none;" width="20" height="20"></rect>
            <path style="fill:#231F20;" d="M18,17H2c-1.105,0-2-0.895-2-2V5c0-1.105,0.895-2,2-2h16c1.105,0,2,0.895,2,2v10C20,16.105,19.105,17,18,17z"></path>
            <path style="fill:#F0CB17;" d="M18,16H2c-0.552,0-1-0.448-1-1V5c0-0.552,0.448-1,1-1h16c0.552,0,1,0.448,1,1v10C19,15.552,18.552,16,18,16z"></path>
            <path d="M3,10c0-2,0.998-3,3-3c1.998,0,3,1,3,3c0,2-1,3-3,3S3,12,3,10z M4,10c0,2,1,2,2,2s2,0,2-2c0-2-1-2-2-2S4,8,4,10z"></path>
            <path d="M10,9l1,0v0.5c0,0,0.847-0.931,2-0.25l-0.5,0.757C12.1,9.682,11,9.62,11,11v2h-1V9z"></path>
            <path d="M15,7h1v2h1v1h-0.993L16,11c0.007,0.964,0.007,0.964,1,1v1h-1c0,0-1,0-1-1v-2h-1V9l1.014,0.008L15,7z"></path>

</svg>
